<svg xmlns="http://www.w3.org/2000/svg" width="16" height="16" viewBox="0 0 16 16"><g fill="none" transform="translate(1)"><circle cx="7" cy="2" r="1.5" stroke="#F97927"/><path stroke="#F97927" d="M2.758 10.5h8.484L8.8 4.803a.5.5 0 0 0-.46-.303H5.66a.5.5 0 0 0-.46.303L2.758 10.5z"/><rect width="14" height="1" y="9" fill="#F97927" rx=".5"/><path stroke="#F97927" stroke-linecap="round" d="M4.836 10.18l1.206-2.923m3 2.923L7.836 7.257"/><path fill="#FFF" stroke="#F97927" d="M2.5 9.5V13a.5.5 0 0 0 .5.5h8a.5.5 0 0 0 .5-.5V9.5h-9z"/></g></svg>
